# xmcd CD database file
#
# Track frame offsets:
#	150
#	1757
#	15744
#	28101
#	44188
#	59120
#	72113
#	90288
#	103710
#	113769
#	123880
#	134924
#	153524
#	165350
#
# Disc length: 2437 seconds
#
# Revision: 0
# Processed by: cddbd v1.5.2PL0 Copyright (c) Steve Scherf et al.
# Submitted via: CDex 1.70beta2
#
DISCID=b809830e
DTITLE=Kansas City Blues Band - Acoustic Morning
DYEAR=1996
DGENRE=Blues
TTITLE0=Brunckhorst´s Special Announcement
TTITLE1=Will The Circle
TTITLE2=Everybody´s Talking At Me
TTITLE3=Midnight Special
TTITLE4=Me And Bobby McGee
TTITLE5=You Ain´t Going Nowhere
TTITLE6=Banks Of The Ohio
TTITLE7=Some Broken Hearts
TTITLE8=Rolling My Sweet Babys Arms
TTITLE9=Have You Ever Seen The Rain
TTITLE10=Help Me Make It Through The Night
TTITLE11=Sweet Home Chicago
TTITLE12=Tush
TTITLE13=Kansas City
EXTD=YEAR: 1996
EXTT0=
EXTT1=
EXTT2=
EXTT3=
EXTT4=
EXTT5=
EXTT6=
EXTT7=
EXTT8=
EXTT9=
EXTT10=
EXTT11=
EXTT12=
EXTT13=
PLAYORDER=
